<?xml version="1.0" encoding="utf-8"?>
<!-- Generator: Adobe Illustrator 15.0.2, SVG Export Plug-In . SVG Version: 6.00 Build 0)  -->
<svg version="1.2" baseProfile="tiny"
	 id="svg4423" xmlns:inkscape="http://www.inkscape.org/namespaces/inkscape" sodipodi:docname="10H.svg" inkscape:version="0.48.1 r9760" xmlns:sodipodi="http://sodipodi.sourceforge.net/DTD/sodipodi-0.dtd" xmlns:rdf="http://www.w3.org/1999/02/22-rdf-syntax-ns#" xmlns:svg="http://www.w3.org/2000/svg" xmlns:cc="http://creativecommons.org/ns#" xmlns:dc="http://purl.org/dc/elements/1.1/"
	 xmlns="http://www.w3.org/2000/svg" xmlns:xlink="http://www.w3.org/1999/xlink" x="0px" y="0px" width="224.225px"
	 height="312.809px" viewBox="259.934 369.777 224.225 312.809" overflow="inherit" xml:space="preserve">
<sodipodi:namedview  bordercolor="#666666" pagecolor="#ffffff" borderopacity="1.0" id="base" inkscape:cx="126.73995" inkscape:pageopacity="0.0" inkscape:pageshadow="2" inkscape:zoom="0.69999999" inkscape:cy="451.52252" inkscape:document-units="px" inkscape:current-layer="layer1" showgrid="false" inkscape:snap-global="true" inkscape:snap-bbox="true" inkscape:snap-page="true" inkscape:window-width="735" inkscape:window-height="925" inkscape:window-x="705" inkscape:window-y="60" inkscape:window-maximized="0">
	</sodipodi:namedview>
<g id="layer1" inkscape:groupmode="layer" inkscape:label="10H">
	<g id="g8970" transform="translate(-1760.0774,-113.66123)">
		<g id="g8891">
			<g id="g8795" transform="translate(-4683.8753,2918.9368)">
				<path id="rect6365" fill="#FFFFFF" stroke="#000000" stroke-width="0.9967" d="M6715.015-2435h201.969
					c5.871,0,10.629,4.759,10.629,10.63v290.551c0,5.871-4.758,10.631-10.629,10.631h-201.969c-5.871,0-10.63-4.76-10.63-10.631
					v-290.551C6704.385-2430.241,6709.145-2435,6715.015-2435z"/>
				<g id="g8612" transform="matrix(0.30106207,0,0,0.30106207,5267.5599,-1982.7028)">
					<path id="path7216" sodipodi:nodetypes="ccccc" inkscape:connector-curvature="0" fill="#D40000" d="M4797.862-1351.724
						v-104.652h10.333v104.652H4797.862z"/>
					<path id="rect7235" inkscape:connector-curvature="0" fill="#D40000" d="M4838.816-1456.376
						c-9.945,0-17.941,8.923-17.941,20.004v64.644c0,11.081,7.996,20.004,17.941,20.004h5.796c9.945,0,17.958-8.923,17.958-20.004
						v-64.644c0-11.081-8.012-20.004-17.958-20.004H4838.816z M4841.809-1446.484c5.874,0,10.6,4.441,10.6,9.971v65.509
						c0,5.531-4.726,9.987-10.6,9.987c-5.873,0-10.601-4.457-10.601-9.987v-65.509
						C4831.208-1442.044,4835.936-1446.484,4841.809-1446.484z"/>
					<g id="g7984" transform="matrix(-0.50404239,0,0,-0.50404239,7403.6384,312.07817)">
						<path id="path7986" sodipodi:nodetypes="ccccc" inkscape:connector-curvature="0" fill="#D40000" d="M3799.245,1843.755
							v-207.633h20.503v207.633H3799.245z"/>
						<path id="path7988" inkscape:connector-curvature="0" fill="#D40000" d="M3880.499,1636.122
							c-19.731,0-35.588,17.71-35.588,39.694v128.245c0,21.983,15.857,39.694,35.588,39.694h11.507
							c19.731,0,35.626-17.71,35.626-39.694v-128.245c0-21.983-15.896-39.694-35.626-39.694H3880.499z M3886.432,1655.75
							c11.661,0,21.044,8.817,21.044,19.783v129.97c0,10.966-9.383,19.808-21.044,19.808c-11.648,0-21.031-8.842-21.031-19.808
							v-129.97C3865.401,1664.567,3874.784,1655.75,3886.432,1655.75z"/>
					</g>
				</g>
			</g>
		</g>
		<path id="path8644" sodipodi:nodetypes="cccccccc" inkscape:connector-curvature="0" fill="#D40000" d="M2029.035,544.076
			c-1.583-3.473-1.757-9.405,2.971-10.208c3.562-0.458,5.012,1.198,5.3,3.742c0.142,0.743,0.562,0.788,0.695-0.059
			c0.205-2.609,2.787-4.133,4.807-3.75c5.526,0.945,5.204,7.028,3.398,11.155c-2.731,5.479-5.601,8.938-8.245,14.452
			C2034.922,553.668,2031.453,549.004,2029.035,544.076L2029.035,544.076z"/>
		<path id="path8568" sodipodi:nodetypes="ccccsccssc" inkscape:connector-curvature="0" fill="#D40000" d="M2063.538,512.26
			c7.144-0.475,10.868,5.628,11.595,10.437c0.434,0.764,0.671,0.549,0.837-0.042c0.35-6.175,5.875-11.221,10.993-10.53
			c8.328,0.108,13.389,9.375,11.966,17.219c-1.738,9.581-6.899,15.351-10.808,21.293c-4.422,6.152-10.373,15.039-12.29,19.316
			c0,0-6.048-9.204-13.917-20.029c-5.262-7.238-9.474-15.082-9.865-21.835C2051.6,520.372,2054.768,513.456,2063.538,512.26
			L2063.538,512.26z"/>
		<path id="path8570" sodipodi:nodetypes="ccccsccssc" inkscape:connector-curvature="0" fill="#D40000" d="M2119.72,544.925
			c7.145-0.474,10.869,5.628,11.596,10.437c0.434,0.765,0.67,0.549,0.837-0.042c0.349-6.174,5.875-11.22,10.992-10.53
			c8.328,0.108,13.391,9.376,11.967,17.219c-1.738,9.582-6.898,15.352-10.807,21.293c-4.422,6.152-10.373,15.04-12.292,19.317
			c0,0-6.048-9.205-13.917-20.03c-5.262-7.238-9.473-15.082-9.864-21.835C2107.784,553.037,2110.951,546.121,2119.72,544.925
			L2119.72,544.925z"/>
		<path id="path8572" sodipodi:nodetypes="ccccsccssc" inkscape:connector-curvature="0" fill="#D40000" d="M2175.07,512.26
			c7.145-0.475,10.869,5.628,11.596,10.437c0.434,0.764,0.67,0.549,0.836-0.042c0.35-6.175,5.875-11.221,10.992-10.53
			c8.328,0.108,13.391,9.375,11.967,17.219c-1.738,9.581-6.898,15.351-10.807,21.293c-4.422,6.152-10.373,15.039-12.291,19.316
			c0,0-6.049-9.204-13.918-20.029c-5.262-7.238-9.473-15.082-9.863-21.835C2163.133,520.372,2166.301,513.456,2175.07,512.26
			L2175.07,512.26z"/>
		<path id="path8574" sodipodi:nodetypes="ccccsccssc" inkscape:connector-curvature="0" fill="#D40000" d="M2175.07,577.591
			c7.145-0.475,10.869,5.627,11.596,10.437c0.434,0.764,0.67,0.548,0.836-0.043c0.35-6.174,5.875-11.22,10.992-10.53
			c8.328,0.108,13.391,9.376,11.967,17.219c-1.738,9.582-6.898,15.352-10.807,21.293c-4.422,6.153-10.373,15.04-12.291,19.317
			c0,0-6.049-9.204-13.918-20.029c-5.262-7.239-9.473-15.083-9.863-21.836C2163.133,585.703,2166.301,578.786,2175.07,577.591
			L2175.07,577.591z"/>
		<path id="path8576" sodipodi:nodetypes="ccccsccssc" inkscape:connector-curvature="0" fill="#D40000" d="M2063.538,577.591
			c7.144-0.475,10.868,5.627,11.595,10.437c0.434,0.764,0.671,0.548,0.837-0.043c0.35-6.174,5.875-11.22,10.993-10.53
			c8.328,0.108,13.389,9.376,11.966,17.219c-1.738,9.582-6.899,15.352-10.808,21.293c-4.422,6.153-10.373,15.04-12.29,19.317
			c0,0-6.048-9.204-13.917-20.029c-5.262-7.239-9.474-15.083-9.865-21.836C2051.6,585.703,2054.768,578.786,2063.538,577.591
			L2063.538,577.591z"/>
		<path id="path8596" sodipodi:nodetypes="ccccsccssc" inkscape:connector-curvature="0" fill="#D40000" d="M2175.07,701.981
			c7.145,0.475,10.869-5.627,11.596-10.438c0.434-0.764,0.67-0.549,0.836,0.043c0.35,6.174,5.875,11.221,10.992,10.529
			c8.328-0.107,13.391-9.375,11.967-17.219c-1.738-9.58-6.898-15.35-10.807-21.293c-4.422-6.152-10.373-15.039-12.291-19.316
			c0,0-6.049,9.205-13.918,20.029c-5.262,7.238-9.473,15.084-9.863,21.836C2163.133,693.868,2166.301,700.786,2175.07,701.981
			L2175.07,701.981z"/>
		<path id="path8598" sodipodi:nodetypes="ccccsccssc" inkscape:connector-curvature="0" fill="#D40000" d="M2175.07,767.087
			c7.145,0.475,10.869-5.627,11.596-10.438c0.434-0.764,0.67-0.549,0.836,0.043c0.35,6.174,5.875,11.221,10.992,10.529
			c8.328-0.107,13.391-9.375,11.967-17.219c-1.738-9.58-6.898-15.35-10.807-21.293c-4.422-6.152-10.373-15.039-12.291-19.316
			c0,0-6.049,9.205-13.918,20.029c-5.262,7.238-9.473,15.082-9.863,21.836C2163.133,758.973,2166.301,765.891,2175.07,767.087
			L2175.07,767.087z"/>
		<path id="path8600" sodipodi:nodetypes="ccccsccssc" inkscape:connector-curvature="0" fill="#D40000" d="M2119.253,734.534
			c7.144,0.475,10.868-5.627,11.595-10.438c0.434-0.764,0.671-0.549,0.837,0.043c0.35,6.174,5.875,11.221,10.993,10.529
			c8.328-0.107,13.389-9.375,11.967-17.219c-1.738-9.58-6.9-15.35-10.809-21.293c-4.422-6.152-10.373-15.039-12.29-19.316
			c0,0-6.049,9.205-13.918,20.029c-5.262,7.238-9.473,15.084-9.864,21.836C2107.316,726.421,2110.483,733.339,2119.253,734.534
			L2119.253,734.534z"/>
		<path id="path8602" sodipodi:nodetypes="ccccsccssc" inkscape:connector-curvature="0" fill="#D40000" d="M2063.538,701.981
			c7.144,0.475,10.868-5.627,11.595-10.438c0.434-0.764,0.671-0.549,0.837,0.043c0.35,6.174,5.875,11.221,10.993,10.529
			c8.328-0.107,13.389-9.375,11.966-17.219c-1.738-9.58-6.899-15.35-10.808-21.293c-4.422-6.152-10.373-15.039-12.29-19.316
			c0,0-6.048,9.205-13.917,20.029c-5.262,7.238-9.474,15.084-9.865,21.836C2051.6,693.868,2054.768,700.786,2063.538,701.981
			L2063.538,701.981z"/>
		<path id="path8604" sodipodi:nodetypes="ccccsccssc" inkscape:connector-curvature="0" fill="#D40000" d="M2063.538,767.087
			c7.144,0.475,10.868-5.627,11.595-10.438c0.434-0.764,0.671-0.549,0.837,0.043c0.35,6.174,5.875,11.221,10.993,10.529
			c8.328-0.107,13.389-9.375,11.966-17.219c-1.738-9.58-6.899-15.35-10.808-21.293c-4.422-6.152-10.373-15.039-12.29-19.316
			c0,0-6.048,9.205-13.917,20.029c-5.262,7.238-9.474,15.082-9.865,21.836C2051.6,758.973,2054.768,765.891,2063.538,767.087
			L2063.538,767.087z"/>
		<path id="path8660" sodipodi:nodetypes="cccccccc" inkscape:connector-curvature="0" fill="#D40000" d="M2217.85,734.934
			c-1.582,3.473-1.756,9.404,2.973,10.207c3.561,0.459,5.012-1.197,5.299-3.74c0.143-0.744,0.562-0.789,0.695,0.057
			c0.203,2.609,2.787,4.133,4.807,3.75c5.525-0.945,5.203-7.027,3.398-11.154c-2.732-5.48-5.602-8.938-8.246-14.453
			C2223.738,725.342,2220.268,730.006,2217.85,734.934L2217.85,734.934z"/>
	</g>
</g>
</svg>
