<?xml version="1.0" encoding="utf-8"?>
<!-- Generator: Adobe Illustrator 15.0.2, SVG Export Plug-In . SVG Version: 6.00 Build 0)  -->
<svg version="1.2" baseProfile="tiny"
	 id="svg4423" xmlns:inkscape="http://www.inkscape.org/namespaces/inkscape" sodipodi:docname="2H.svg" inkscape:version="0.48.1 r9760" xmlns:sodipodi="http://sodipodi.sourceforge.net/DTD/sodipodi-0.dtd" xmlns:rdf="http://www.w3.org/1999/02/22-rdf-syntax-ns#" xmlns:svg="http://www.w3.org/2000/svg" xmlns:cc="http://creativecommons.org/ns#" xmlns:dc="http://purl.org/dc/elements/1.1/"
	 xmlns="http://www.w3.org/2000/svg" xmlns:xlink="http://www.w3.org/1999/xlink" x="0px" y="0px" width="224.226px"
	 height="312.807px" viewBox="259.935 369.777 224.226 312.807" overflow="inherit" xml:space="preserve">
<sodipodi:namedview  bordercolor="#666666" pagecolor="#ffffff" borderopacity="1.0" id="base" inkscape:cx="248.48484" inkscape:pageopacity="0.0" inkscape:pageshadow="2" inkscape:zoom="0.98994948" inkscape:cy="492.08587" inkscape:document-units="px" inkscape:current-layer="layer1" showgrid="false" inkscape:snap-global="true" inkscape:snap-bbox="true" inkscape:snap-page="true" inkscape:window-width="690" inkscape:window-height="925" inkscape:window-x="935" inkscape:window-y="42" inkscape:window-maximized="0">
	</sodipodi:namedview>
<g id="layer1" inkscape:groupmode="layer" inkscape:label="2H">
	<g id="g8900" transform="translate(-1313.6208,198.14981)">
		<g id="g8879" transform="translate(-4683.8753,2918.9368)">
			<path id="rect6347" fill="#FFFFFF" stroke="#000000" stroke-width="0.9967" d="M6268.56-2746.811h201.969
				c5.871,0,10.631,4.759,10.631,10.63v290.551c0,5.871-4.76,10.629-10.631,10.629H6268.56c-5.871,0-10.63-4.758-10.63-10.629
				v-290.551C6257.93-2742.052,6262.689-2746.811,6268.56-2746.811z"/>
		</g>
		<g id="g6564" transform="translate(-0.13622252,4.5315816e-5)">
			<path id="path8628" sodipodi:nodetypes="cccccccc" inkscape:connector-curvature="0" fill="#D40000" d="M1583.27,232.357
				c-1.583-3.472-1.757-9.405,2.971-10.208c3.562-0.458,5.012,1.198,5.3,3.742c0.142,0.743,0.562,0.788,0.695-0.059
				c0.205-2.609,2.787-4.133,4.807-3.75c5.526,0.945,5.204,7.028,3.398,11.156c-2.731,5.479-5.601,8.938-8.245,14.451
				C1589.158,241.949,1585.688,237.285,1583.27,232.357L1583.27,232.357z"/>
			<g id="g6555">
				<path id="path8650" sodipodi:nodetypes="cccccccc" inkscape:connector-curvature="0" fill="#D40000" d="M1770.994,423.629
					c-1.584,3.473-1.758,9.406,2.971,10.207c3.562,0.459,5.012-1.197,5.301-3.74c0.141-0.744,0.561-0.789,0.693,0.057
					c0.205,2.609,2.787,4.133,4.807,3.75c5.527-0.945,5.205-7.027,3.398-11.154c-2.73-5.48-5.6-8.938-8.244-14.453
					C1776.881,414.037,1773.412,418.701,1770.994,423.629L1770.994,423.629z"/>
				<g id="g6548">
					<g id="g8574" transform="matrix(0.30106207,0,0,0.30106207,995.9849,969.13578)">
						<path id="path7100" sodipodi:nodetypes="csscscccsccccccc" inkscape:connector-curvature="0" fill="#D40000" d="
							M1947.703-2492.422l0.547-6.705c1.693-20.724,6.226-27.721,31.96-49.343c12.488-10.49,16.588-15.667,17.166-21.676
							c1.63-14.149-11.131-18.57-19.448-18.647c-10.769-0.099-22.951,6.35-17.143,21.305l-12.08,3.547
							c-2.438-13.951,0.057-27.044,11.377-32.859c15.101-7.573,34.479-4.601,44.256,7.329c6.57,8.019,8.064,19.088,4.543,27.753
							c-10.299,22.161-45.244,31.909-48.132,57.527h38.634v-14.266h11.379v26.264L1947.703-2492.422z"/>
						<path id="path7116" sodipodi:nodetypes="csscscccsccccccc" inkscape:connector-curvature="0" fill="#D40000" d="
							M2633.968-1766.529l-0.545,6.702c-1.693,20.721-6.228,27.721-31.964,49.344c-12.488,10.49-16.588,15.667-17.166,21.675
							c-1.628,14.149,11.132,18.573,19.449,18.651c10.769,0.097,22.953-6.351,17.14-21.305l12.08-3.549
							c2.439,13.948-0.052,27.046-11.372,32.859c-15.103,7.571-34.481,4.6-44.258-7.331c-6.572-8.019-8.064-19.086-4.541-27.753
							c10.296-22.161,45.244-31.912,48.13-57.531h-38.633v14.266h-11.379v-26.261L2633.968-1766.529z"/>
					</g>
					<path id="path8514" sodipodi:nodetypes="ccccsccssc" inkscape:connector-curvature="0" fill="#D40000" d="M1673.719,200.092
						c7.145-0.475,10.869,5.628,11.596,10.437c0.434,0.764,0.671,0.549,0.837-0.042c0.35-6.175,5.875-11.221,10.993-10.53
						c8.328,0.108,13.389,9.375,11.967,17.219c-1.738,9.581-6.9,15.351-10.809,21.293c-4.422,6.152-10.373,15.039-12.29,19.316
						c0,0-6.049-9.204-13.918-20.029c-5.262-7.238-9.473-15.082-9.864-21.835C1661.783,208.204,1664.95,201.288,1673.719,200.092
						L1673.719,200.092z"/>
					<path id="path8580" sodipodi:nodetypes="ccccsccssc" inkscape:connector-curvature="0" fill="#D40000" d="M1673.719,456.393
						c7.145,0.475,10.869-5.627,11.596-10.436c0.434-0.766,0.671-0.549,0.837,0.041c0.35,6.174,5.875,11.221,10.993,10.531
						c8.328-0.109,13.389-9.377,11.967-17.219c-1.738-9.582-6.9-15.352-10.809-21.293c-4.422-6.152-10.373-15.041-12.29-19.318
						c0,0-6.049,9.205-13.918,20.031c-5.262,7.238-9.473,15.082-9.864,21.834C1661.783,448.281,1664.95,455.198,1673.719,456.393
						L1673.719,456.393z"/>
				</g>
			</g>
		</g>
	</g>
</g>
</svg>
