<?xml version="1.0" encoding="utf-8"?>
<!-- Generator: Adobe Illustrator 15.0.2, SVG Export Plug-In . SVG Version: 6.00 Build 0)  -->
<svg version="1.2" baseProfile="tiny"
	 id="svg4423" xmlns:inkscape="http://www.inkscape.org/namespaces/inkscape" sodipodi:docname="4H.svg" inkscape:version="0.48.1 r9760" xmlns:sodipodi="http://sodipodi.sourceforge.net/DTD/sodipodi-0.dtd" xmlns:rdf="http://www.w3.org/1999/02/22-rdf-syntax-ns#" xmlns:svg="http://www.w3.org/2000/svg" xmlns:cc="http://creativecommons.org/ns#" xmlns:dc="http://purl.org/dc/elements/1.1/"
	 xmlns="http://www.w3.org/2000/svg" xmlns:xlink="http://www.w3.org/1999/xlink" x="0px" y="0px" width="224.225px"
	 height="312.807px" viewBox="259.934 369.777 224.225 312.807" overflow="inherit" xml:space="preserve">
<sodipodi:namedview  bordercolor="#666666" pagecolor="#ffffff" borderopacity="1.0" id="base" inkscape:cx="249.10806" inkscape:pageopacity="0.0" inkscape:pageshadow="2" inkscape:zoom="0.98994948" inkscape:cy="483.12663" inkscape:document-units="px" inkscape:current-layer="layer1" showgrid="false" inkscape:snap-global="true" inkscape:snap-bbox="true" inkscape:snap-page="true" inkscape:window-width="735" inkscape:window-height="925" inkscape:window-x="577" inkscape:window-y="44" inkscape:window-maximized="0">
	</sodipodi:namedview>
<g id="layer1" inkscape:groupmode="layer" inkscape:label="4H">
	<g id="g8925" transform="translate(-1760.0774,198.14981)">
		<g id="g8796">
			<g id="g8902" transform="translate(-4683.8753,2918.9368)">
				<path id="rect6353" fill="#FFFFFF" stroke="#000000" stroke-width="0.9967" d="M6715.015-2746.811h201.969
					c5.871,0,10.629,4.759,10.629,10.63v290.551c0,5.871-4.758,10.629-10.629,10.629h-201.969c-5.871,0-10.63-4.758-10.63-10.629
					v-290.551C6704.385-2742.052,6709.145-2746.811,6715.015-2746.811z"/>
				<g id="g8591" transform="matrix(0.30106207,0,0,0.30106207,5623.2929,-1949.6699)">
					<path id="path7104" sodipodi:nodetypes="cccccccccccccccccccc" inkscape:connector-curvature="0" fill="#D40000" d="
						M3650.174-2493.729v-9.345h8.586v-15.398h-42.932v-10.867l46.452-70.079l7.592,0.026v70.053h13.132v10.867h-13.132
						l-0.253,15.398h7.198v9.345H3650.174z M3658.76-2573.77l-29.494,44.431h29.494V-2573.77z"/>
					<path id="path7159" sodipodi:nodetypes="cccccccccccccccccccc" inkscape:connector-curvature="0" fill="#D40000" d="
						M4273.155-1766.095v9.342h-8.583v15.401h42.934v10.866l-46.457,70.077l-7.59-0.026v-70.052h-13.13v-10.866h13.13l0.253-15.401
						h-7.195v-9.342H4273.155z M4264.573-1686.053l29.492-44.432h-29.492V-1686.053z"/>
				</g>
			</g>
		</g>
		<path id="path8638" sodipodi:nodetypes="cccccccc" inkscape:connector-curvature="0" fill="#D40000" d="M2029.267,233.121
			c-1.583-3.473-1.756-9.405,2.971-10.208c3.562-0.459,5.012,1.198,5.3,3.742c0.143,0.742,0.562,0.788,0.695-0.059
			c0.205-2.609,2.788-4.133,4.807-3.75c5.526,0.945,5.204,7.028,3.398,11.155c-2.731,5.479-5.601,8.938-8.245,14.452
			C2035.154,242.713,2031.685,238.049,2029.267,233.121L2029.267,233.121z"/>
		<path id="path8520" sodipodi:nodetypes="ccccsccssc" inkscape:connector-curvature="0" fill="#D40000" d="M2065.508,198.19
			c7.144-0.475,10.868,5.627,11.595,10.437c0.434,0.764,0.671,0.549,0.837-0.042c0.35-6.175,5.875-11.221,10.993-10.53
			c8.328,0.108,13.389,9.375,11.966,17.219c-1.738,9.581-6.899,15.351-10.808,21.293c-4.422,6.152-10.373,15.039-12.29,19.316
			c0,0-6.048-9.204-13.917-20.029c-5.262-7.238-9.474-15.082-9.865-21.835C2053.571,206.302,2056.738,199.386,2065.508,198.19
			L2065.508,198.19z"/>
		<path id="path8522" sodipodi:nodetypes="ccccsccssc" inkscape:connector-curvature="0" fill="#D40000" d="M2175.041,198.19
			c7.145-0.475,10.869,5.627,11.596,10.437c0.434,0.764,0.67,0.549,0.836-0.042c0.35-6.175,5.875-11.221,10.992-10.53
			c8.328,0.108,13.391,9.375,11.967,17.219c-1.738,9.581-6.898,15.351-10.807,21.293c-4.422,6.152-10.373,15.039-12.291,19.316
			c0,0-6.049-9.204-13.918-20.029c-5.262-7.238-9.473-15.082-9.863-21.835C2163.104,206.302,2166.271,199.386,2175.041,198.19
			L2175.041,198.19z"/>
		<path id="path8584" sodipodi:nodetypes="ccccsccssc" inkscape:connector-curvature="0" fill="#D40000" d="M2065.508,454.531
			c7.144,0.473,10.868-5.629,11.595-10.438c0.434-0.764,0.671-0.549,0.837,0.043c0.35,6.174,5.875,11.219,10.993,10.529
			c8.328-0.107,13.389-9.375,11.966-17.219c-1.738-9.582-6.899-15.352-10.808-21.293c-4.422-6.152-10.373-15.039-12.29-19.316
			c0,0-6.048,9.205-13.917,20.029c-5.262,7.238-9.474,15.082-9.865,21.836c-0.448,7.715,2.719,14.631,11.489,15.826V454.531z"/>
		<path id="path8586" sodipodi:nodetypes="ccccsccssc" inkscape:connector-curvature="0" fill="#D40000" d="M2175.041,454.531
			c7.145,0.473,10.869-5.629,11.596-10.438c0.434-0.764,0.67-0.549,0.836,0.043c0.35,6.174,5.875,11.219,10.992,10.529
			c8.328-0.107,13.391-9.375,11.967-17.219c-1.738-9.582-6.898-15.352-10.807-21.293c-4.422-6.152-10.373-15.039-12.291-19.316
			c0,0-6.049,9.205-13.918,20.029c-5.262,7.238-9.473,15.082-9.863,21.836c-0.449,7.715,2.719,14.631,11.488,15.826V454.531z"/>
		<path id="path8654" sodipodi:nodetypes="cccccccc" inkscape:connector-curvature="0" fill="#D40000" d="M2216.486,423.233
			c-1.584,3.473-1.758,9.406,2.971,10.209c3.562,0.459,5.012-1.199,5.299-3.742c0.143-0.742,0.562-0.789,0.695,0.059
			c0.205,2.609,2.787,4.133,4.807,3.75c5.527-0.945,5.203-7.029,3.398-11.156c-2.73-5.479-5.602-8.938-8.246-14.451
			c-3.037,5.74-6.506,10.404-8.926,15.332H2216.486z"/>
	</g>
</g>
</svg>
