<?xml version="1.0" encoding="utf-8"?>
<!-- Generator: Adobe Illustrator 15.0.2, SVG Export Plug-In . SVG Version: 6.00 Build 0)  -->
<svg version="1.2" baseProfile="tiny"
	 id="svg4423" xmlns:inkscape="http://www.inkscape.org/namespaces/inkscape" sodipodi:docname="9H.svg" inkscape:version="0.48.1 r9760" xmlns:sodipodi="http://sodipodi.sourceforge.net/DTD/sodipodi-0.dtd" xmlns:rdf="http://www.w3.org/1999/02/22-rdf-syntax-ns#" xmlns:svg="http://www.w3.org/2000/svg" xmlns:cc="http://creativecommons.org/ns#" xmlns:dc="http://purl.org/dc/elements/1.1/"
	 xmlns="http://www.w3.org/2000/svg" xmlns:xlink="http://www.w3.org/1999/xlink" x="0px" y="0px" width="224.226px"
	 height="312.809px" viewBox="259.935 369.777 224.226 312.809" overflow="inherit" xml:space="preserve">
<sodipodi:namedview  bordercolor="#666666" pagecolor="#ffffff" borderopacity="1.0" id="base" inkscape:cx="195.21402" inkscape:pageopacity="0.0" inkscape:pageshadow="2" inkscape:zoom="0.98994948" inkscape:cy="512.40065" inkscape:document-units="px" inkscape:current-layer="layer1" showgrid="false" inkscape:snap-global="true" inkscape:snap-bbox="true" inkscape:snap-page="true" inkscape:window-width="735" inkscape:window-height="925" inkscape:window-x="976" inkscape:window-y="63" inkscape:window-maximized="0">
	</sodipodi:namedview>
<g id="layer1" inkscape:groupmode="layer" inkscape:label="9H">
	<g id="g8993" transform="translate(-1536.8493,-113.66123)">
		<g id="g8871">
			<g id="g8817" transform="translate(-4683.8753,2918.9368)">
				<path id="rect6363" fill="#FFFFFF" stroke="#000000" stroke-width="0.9967" d="M6491.788-2435h201.969
					c5.871,0,10.631,4.759,10.631,10.63v290.551c0,5.871-4.76,10.631-10.631,10.631h-201.969c-5.871,0-10.63-4.76-10.63-10.631
					v-290.551C6481.158-2430.241,6485.917-2435,6491.788-2435z"/>
				<g id="g8631" transform="matrix(0.30106207,0,0,0.30106207,5727.1309,-1950.5247)">
					<g id="g8685" transform="translate(-1267.7708,-112.90889)">
						<path id="path7114" sodipodi:nodetypes="ccsccccscccsssssss" inkscape:connector-curvature="0" fill="#D40000" d="
							M3799.816-1365.607l10.052-3.127c3.792,9.948,11.46,12.881,19.569,12.251c14.555-1.132,19.386-17.101,20.478-31.221
							c-5.672,5.894-14.196,8.888-21.456,8.596c-23.193-1.226-29.129-19.446-29.344-38.535
							c-0.646-16.097,6.137-27.753,17.766-33.094c6.15-2.712,20.242-2.712,26.436,0.495c14.224,7.36,19.488,20.09,18.533,50.456
							c0.015,24.993-5.396,54.099-32.676,54.725C3813.405-1342.923,3801.432-1354.961,3799.816-1365.607L3799.816-1365.607z
							 M3839.301-1392.987c4.733-2.942,7.404-5.702,9.525-9.841c1.742-3.396,2.331-5.158,1.834-12.19
							c-1.28-18.121-10.959-28.392-24.995-26.352c-7.827,1.138-12.101,5.443-14.556,13.445
							c-4.536,14.779,1.213,32.077,11.986,36.064C3827.954-1390.064,3835.434-1390.583,3839.301-1392.987z"/>
						<path id="path7130" sodipodi:nodetypes="ccsccccscccsssssss" inkscape:connector-curvature="0" fill="#D40000" d="
							M4484.18-591.315l-10.056,3.127c-3.789-9.945-11.457-12.884-19.566-12.248c-14.558,1.129-19.384,17.101-20.48,31.218
							c5.676-5.891,14.201-8.888,21.46-8.596c23.193,1.226,29.129,19.449,29.343,38.535c0.643,16.095-6.137,27.753-17.763,33.092
							c-6.156,2.712-20.247,2.712-26.442-0.493c-14.221-7.357-19.482-20.092-18.528-50.459c-0.02-24.99,5.397-54.099,32.677-54.722
							C4470.588-614.001,4482.564-601.961,4484.18-591.315L4484.18-591.315z M4444.697-563.931
							c-4.736,2.939-7.402,5.703-9.523,9.835c-1.745,3.399-2.335,5.164-1.836,12.196c1.278,18.119,10.957,28.389,24.99,26.352
							c7.83-1.142,12.105-5.443,14.558-13.448c4.541-14.778-1.213-32.074-11.982-36.064
							C4456.043-566.857,4448.563-566.338,4444.697-563.931L4444.697-563.931z"/>
					</g>
				</g>
			</g>
		</g>
		<path id="path8636" sodipodi:nodetypes="cccccccc" inkscape:connector-curvature="0" fill="#D40000" d="M1805.866,542.262
			c-1.583-3.473-1.757-9.405,2.971-10.208c3.562-0.459,5.012,1.198,5.3,3.742c0.142,0.742,0.562,0.788,0.695-0.059
			c0.204-2.609,2.787-4.133,4.807-3.75c5.526,0.945,5.204,7.028,3.398,11.155c-2.731,5.479-5.601,8.938-8.245,14.452
			C1811.753,551.854,1808.284,547.19,1805.866,542.262L1805.866,542.262z"/>
		<path id="path8558" sodipodi:nodetypes="ccccsccssc" inkscape:connector-curvature="0" fill="#D40000" d="M1842.134,512.612
			c7.144-0.475,10.868,5.627,11.595,10.437c0.434,0.764,0.671,0.549,0.837-0.043c0.35-6.174,5.875-11.22,10.993-10.529
			c8.327,0.107,13.39,9.375,11.966,17.219c-1.738,9.581-6.899,15.351-10.808,21.293c-4.421,6.152-10.372,15.039-12.29,19.316
			c0,0-6.048-9.204-13.917-20.029c-5.262-7.238-9.473-15.083-9.865-21.836C1830.197,520.725,1833.364,513.808,1842.134,512.612
			L1842.134,512.612z"/>
		<path id="path8560" sodipodi:nodetypes="ccccsccssc" inkscape:connector-curvature="0" fill="#D40000" d="M1951.666,512.612
			c7.145-0.475,10.869,5.627,11.596,10.437c0.434,0.764,0.672,0.549,0.838-0.043c0.348-6.174,5.875-11.22,10.992-10.529
			c8.328,0.107,13.389,9.375,11.967,17.219c-1.738,9.581-6.9,15.351-10.809,21.293c-4.422,6.152-10.373,15.039-12.289,19.316
			c0,0-6.049-9.204-13.918-20.029c-5.262-7.238-9.473-15.083-9.865-21.836C1939.73,520.725,1942.896,513.808,1951.666,512.612
			L1951.666,512.612z"/>
		<path id="path8562" sodipodi:nodetypes="ccccsccssc" inkscape:connector-curvature="0" fill="#D40000" d="M1951.666,577.943
			c7.145-0.474,10.869,5.628,11.596,10.437c0.434,0.765,0.672,0.549,0.838-0.042c0.348-6.174,5.875-11.22,10.992-10.53
			c8.328,0.108,13.389,9.376,11.967,17.219c-1.738,9.582-6.9,15.352-10.809,21.293c-4.422,6.152-10.373,15.04-12.289,19.317
			c0,0-6.049-9.205-13.918-20.03c-5.262-7.238-9.473-15.082-9.865-21.835C1939.73,586.055,1942.896,579.139,1951.666,577.943
			L1951.666,577.943z"/>
		<path id="path8564" sodipodi:nodetypes="ccccsccssc" inkscape:connector-curvature="0" fill="#D40000" d="M1896.847,611.096
			c7.144-0.475,10.868,5.627,11.595,10.437c0.434,0.764,0.671,0.549,0.837-0.043c0.35-6.174,5.875-11.22,10.993-10.529
			c8.328,0.107,13.389,9.375,11.967,17.219c-1.738,9.581-6.9,15.351-10.809,21.292c-4.42,6.152-10.373,15.039-12.29,19.316
			c0,0-6.049-9.203-13.917-20.029c-5.263-7.238-9.474-15.082-9.865-21.835C1884.91,619.208,1888.077,612.291,1896.847,611.096
			L1896.847,611.096z"/>
		<path id="path8566" sodipodi:nodetypes="ccccsccssc" inkscape:connector-curvature="0" fill="#D40000" d="M1842.134,577.943
			c7.144-0.474,10.868,5.628,11.595,10.437c0.434,0.765,0.671,0.549,0.837-0.042c0.35-6.174,5.875-11.22,10.993-10.53
			c8.327,0.108,13.39,9.376,11.966,17.219c-1.738,9.582-6.899,15.352-10.808,21.293c-4.421,6.152-10.372,15.04-12.29,19.317
			c0,0-6.048-9.205-13.917-20.03c-5.262-7.238-9.473-15.082-9.865-21.835C1830.197,586.055,1833.364,579.139,1842.134,577.943
			L1842.134,577.943z"/>
		<path id="path8606" sodipodi:nodetypes="ccccsccssc" inkscape:connector-curvature="0" fill="#D40000" d="M1951.666,702.333
			c7.145,0.475,10.869-5.627,11.596-10.436c0.434-0.764,0.672-0.549,0.838,0.041c0.348,6.176,5.875,11.221,10.992,10.531
			c8.328-0.109,13.389-9.375,11.967-17.219c-1.738-9.582-6.9-15.352-10.809-21.293c-4.422-6.152-10.373-15.039-12.289-19.316
			c0,0-6.049,9.203-13.918,20.029c-5.262,7.238-9.473,15.082-9.865,21.834C1939.73,694.221,1942.896,701.137,1951.666,702.333
			L1951.666,702.333z"/>
		<path id="path8608" sodipodi:nodetypes="ccccsccssc" inkscape:connector-curvature="0" fill="#D40000" d="M1951.666,767.438
			c7.145,0.475,10.869-5.627,11.596-10.436c0.434-0.764,0.672-0.549,0.838,0.041c0.348,6.176,5.875,11.221,10.992,10.531
			c8.328-0.109,13.389-9.375,11.967-17.219c-1.738-9.582-6.9-15.352-10.809-21.293c-4.422-6.152-10.373-15.039-12.289-19.316
			c0,0-6.049,9.203-13.918,20.029c-5.262,7.238-9.473,15.082-9.865,21.834C1939.73,759.327,1942.896,766.243,1951.666,767.438
			L1951.666,767.438z"/>
		<path id="path8610" sodipodi:nodetypes="ccccsccssc" inkscape:connector-curvature="0" fill="#D40000" d="M1842.134,767.438
			c7.144,0.475,10.868-5.627,11.595-10.436c0.434-0.764,0.671-0.549,0.837,0.041c0.35,6.176,5.875,11.221,10.993,10.531
			c8.327-0.109,13.39-9.375,11.966-17.219c-1.738-9.582-6.899-15.352-10.808-21.293c-4.421-6.152-10.372-15.039-12.29-19.316
			c0,0-6.048,9.203-13.917,20.029c-5.262,7.238-9.473,15.082-9.865,21.834C1830.197,759.327,1833.364,766.243,1842.134,767.438
			L1842.134,767.438z"/>
		<path id="path8612" sodipodi:nodetypes="ccccsccssc" inkscape:connector-curvature="0" fill="#D40000" d="M1842.134,702.333
			c7.144,0.475,10.868-5.627,11.595-10.436c0.434-0.764,0.671-0.549,0.837,0.041c0.35,6.176,5.875,11.221,10.993,10.531
			c8.327-0.109,13.39-9.375,11.966-17.219c-1.738-9.582-6.899-15.352-10.808-21.293c-4.421-6.152-10.372-15.039-12.29-19.316
			c0,0-6.048,9.203-13.917,20.029c-5.262,7.238-9.473,15.082-9.865,21.834C1830.197,694.221,1833.364,701.137,1842.134,702.333
			L1842.134,702.333z"/>
		<path id="path8662" sodipodi:nodetypes="cccccccc" inkscape:connector-curvature="0" fill="#D40000" d="M1994.682,733.12
			c-1.584,3.473-1.758,9.404,2.971,10.207c3.562,0.459,5.012-1.197,5.299-3.742c0.143-0.742,0.562-0.787,0.695,0.059
			c0.205,2.609,2.787,4.133,4.807,3.75c5.527-0.945,5.203-7.027,3.398-11.154c-2.73-5.48-5.6-8.938-8.244-14.453
			C2000.568,723.528,1997.1,728.192,1994.682,733.12L1994.682,733.12z"/>
	</g>
</g>
</svg>
