<?xml version="1.0" encoding="utf-8"?>
<!-- Generator: Adobe Illustrator 15.0.2, SVG Export Plug-In . SVG Version: 6.00 Build 0)  -->
<svg version="1.2" baseProfile="tiny"
	 id="svg4423" xmlns:inkscape="http://www.inkscape.org/namespaces/inkscape" sodipodi:docname="5H.svg" inkscape:version="0.48.1 r9760" xmlns:sodipodi="http://sodipodi.sourceforge.net/DTD/sodipodi-0.dtd" xmlns:rdf="http://www.w3.org/1999/02/22-rdf-syntax-ns#" xmlns:svg="http://www.w3.org/2000/svg" xmlns:cc="http://creativecommons.org/ns#" xmlns:dc="http://purl.org/dc/elements/1.1/"
	 xmlns="http://www.w3.org/2000/svg" xmlns:xlink="http://www.w3.org/1999/xlink" x="0px" y="0px" width="224.225px"
	 height="312.807px" viewBox="259.934 369.777 224.225 312.807" overflow="inherit" xml:space="preserve">
<sodipodi:namedview  bordercolor="#666666" pagecolor="#ffffff" borderopacity="1.0" id="base" inkscape:cx="199.26695" inkscape:pageopacity="0.0" inkscape:pageshadow="2" inkscape:zoom="0.98994948" inkscape:cy="514.96342" inkscape:document-units="px" inkscape:current-layer="layer1" showgrid="false" inkscape:snap-global="true" inkscape:snap-bbox="true" inkscape:snap-page="true" inkscape:window-width="735" inkscape:window-height="925" inkscape:window-x="578" inkscape:window-y="17" inkscape:window-maximized="0">
	</sodipodi:namedview>
<g id="layer1" inkscape:groupmode="layer" inkscape:label="5H">
	<g id="g8939" transform="translate(-1983.3059,198.14981)">
		<g id="g8809">
			<g id="g8915" transform="translate(-4683.8753,2918.9368)">
				<path id="rect6355" fill="#FFFFFF" stroke="#000000" stroke-width="0.9967" d="M6938.244-2746.811h201.969
					c5.871,0,10.629,4.759,10.629,10.63v290.551c0,5.871-4.758,10.629-10.629,10.629h-201.969c-5.871,0-10.63-4.758-10.63-10.629
					v-290.551C6927.614-2742.052,6932.373-2746.811,6938.244-2746.811z"/>
				<g id="g8601" transform="matrix(0.30106207,0,0,0.30106207,5562.5812,-1947.8121)">
					<path id="path7106" sodipodi:nodetypes="cccssccccccccccc" inkscape:connector-curvature="0" fill="#D40000" d="
						M4561.226-2529.249l10.696-0.094c2.036,6.455,6.551,13.04,12.678,14.856c17.312,4.068,28.457-5.602,32.129-16.76
						c4.451-13.529-0.101-32.538-12.016-39.288c-9.884-5.599-24.563-0.875-31.297,11.09l-7.496-4.583l4.024-44.582h48.928v10.536
						h-39.653l-0.621,18.572c8.521-5.986,21.65-5.928,30.178-1.727c16.159,7.702,23.663,25.22,20.519,45.873
						c-4.353,20.54-13.943,32.175-35.6,33.845C4569.63-2501.301,4561.13-2517.848,4561.226-2529.249L4561.226-2529.249z"/>
					<path id="path7122" sodipodi:nodetypes="cccssccccccccccc" inkscape:connector-curvature="0" fill="#D40000" d="
						M5248.358-1742.917l-10.691,0.097c-2.037-6.462-6.552-13.046-12.683-14.863c-17.308-4.061-28.454,5.605-32.125,16.764
						c-4.451,13.533,0.104,32.534,12.015,39.288c9.887,5.599,24.568,0.876,31.295-11.087l7.5,4.58l-4.022,44.582h-48.928v-10.536
						h39.651l0.623-18.573c-8.524,5.988-21.655,5.929-30.18,1.726c-16.16-7.701-23.659-25.217-20.52-45.873
						c4.353-20.533,13.941-32.171,35.603-33.845C5239.957-1770.865,5248.456-1754.322,5248.358-1742.917L5248.358-1742.917z"/>
				</g>
			</g>
		</g>
		<path id="path8640" sodipodi:nodetypes="cccccccc" inkscape:connector-curvature="0" fill="#D40000" d="M2253.25,232.723
			c-1.583-3.473-1.756-9.406,2.972-10.208c3.562-0.459,5.012,1.198,5.3,3.741c0.142,0.743,0.562,0.789,0.694-0.058
			c0.205-2.609,2.787-4.133,4.807-3.75c5.526,0.945,5.204,7.028,3.398,11.155c-2.731,5.479-5.601,8.938-8.245,14.452
			C2259.138,242.315,2255.668,237.651,2253.25,232.723L2253.25,232.723z"/>
		<path id="path8524" sodipodi:nodetypes="ccccsccssc" inkscape:connector-curvature="0" fill="#D40000" d="M2287.794,200.048
			c7.145-0.474,10.868,5.628,11.596,10.437c0.433,0.765,0.67,0.549,0.836-0.042c0.35-6.174,5.875-11.22,10.993-10.53
			c8.328,0.108,13.39,9.376,11.966,17.219c-1.738,9.582-6.899,15.352-10.808,21.293c-4.421,6.152-10.372,15.04-12.29,19.317
			c0,0-6.048-9.205-13.917-20.03c-5.262-7.238-9.473-15.082-9.865-21.835C2275.857,208.16,2279.024,201.244,2287.794,200.048
			L2287.794,200.048z"/>
		<path id="path8526" sodipodi:nodetypes="ccccsccssc" inkscape:connector-curvature="0" fill="#D40000" d="M2398.476,200.048
			c7.143-0.474,10.867,5.628,11.594,10.437c0.434,0.765,0.672,0.549,0.838-0.042c0.35-6.174,5.875-11.22,10.992-10.53
			c8.328,0.108,13.391,9.376,11.967,17.219c-1.738,9.582-6.9,15.352-10.809,21.293c-4.42,6.152-10.373,15.04-12.289,19.317
			c0,0-6.049-9.205-13.918-20.03c-5.262-7.238-9.473-15.082-9.865-21.835C2386.539,208.16,2389.707,201.244,2398.476,200.048
			L2398.476,200.048z"/>
		<path id="path8528" sodipodi:nodetypes="ccccsccssc" inkscape:connector-curvature="0" fill="#D40000" d="M2343.304,299.285
			c7.144-0.475,10.868,5.627,11.595,10.437c0.434,0.764,0.671,0.549,0.837-0.043c0.35-6.174,5.875-11.22,10.993-10.529
			c8.328,0.107,13.389,9.375,11.967,17.219c-1.738,9.581-6.9,15.351-10.809,21.292c-4.422,6.152-10.373,15.039-12.29,19.316
			c0,0-6.049-9.203-13.918-20.029c-5.262-7.238-9.473-15.082-9.864-21.835C2331.366,307.397,2334.533,300.48,2343.304,299.285
			L2343.304,299.285z"/>
		<path id="path8588" sodipodi:nodetypes="ccccsccssc" inkscape:connector-curvature="0" fill="#D40000" d="M2287.794,454.194
			c7.145,0.473,10.868-5.629,11.596-10.438c0.433-0.764,0.67-0.549,0.836,0.043c0.35,6.174,5.875,11.219,10.993,10.529
			c8.328-0.107,13.39-9.375,11.966-17.219c-1.738-9.582-6.899-15.352-10.808-21.293c-4.421-6.152-10.372-15.039-12.29-19.316
			c0,0-6.048,9.205-13.917,20.029c-5.262,7.238-9.473,15.082-9.865,21.836C2275.857,446.08,2279.024,452.996,2287.794,454.194
			L2287.794,454.194z"/>
		<path id="path8590" sodipodi:nodetypes="ccccsccssc" inkscape:connector-curvature="0" fill="#D40000" d="M2398.476,454.194
			c7.143,0.473,10.867-5.629,11.594-10.438c0.434-0.764,0.672-0.549,0.838,0.043c0.35,6.174,5.875,11.219,10.992,10.529
			c8.328-0.107,13.391-9.375,11.967-17.219c-1.738-9.582-6.9-15.352-10.809-21.293c-4.42-6.152-10.373-15.039-12.289-19.316
			c0,0-6.049,9.205-13.918,20.029c-5.262,7.238-9.473,15.082-9.865,21.836C2386.539,446.08,2389.707,452.996,2398.476,454.194
			L2398.476,454.194z"/>
		<path id="path8656" sodipodi:nodetypes="cccccccc" inkscape:connector-curvature="0" fill="#D40000" d="M2439.958,423.58
			c-1.584,3.473-1.758,9.406,2.971,10.209c3.562,0.457,5.012-1.199,5.301-3.742c0.141-0.744,0.561-0.789,0.693,0.059
			c0.205,2.609,2.787,4.133,4.807,3.75c5.527-0.945,5.205-7.029,3.398-11.156c-2.73-5.479-5.6-8.938-8.244-14.451
			C2445.845,413.989,2442.376,418.653,2439.958,423.58L2439.958,423.58z"/>
	</g>
</g>
</svg>
