<?xml version="1.0" encoding="utf-8"?>
<!-- Generator: Adobe Illustrator 15.0.2, SVG Export Plug-In . SVG Version: 6.00 Build 0)  -->
<svg version="1.2" baseProfile="tiny"
	 id="svg4423" xmlns:inkscape="http://www.inkscape.org/namespaces/inkscape" sodipodi:docname="6H.svg" inkscape:version="0.48.1 r9760" xmlns:sodipodi="http://sodipodi.sourceforge.net/DTD/sodipodi-0.dtd" xmlns:rdf="http://www.w3.org/1999/02/22-rdf-syntax-ns#" xmlns:svg="http://www.w3.org/2000/svg" xmlns:cc="http://creativecommons.org/ns#" xmlns:dc="http://purl.org/dc/elements/1.1/"
	 xmlns="http://www.w3.org/2000/svg" xmlns:xlink="http://www.w3.org/1999/xlink" x="0px" y="0px" width="224.225px"
	 height="312.807px" viewBox="259.934 369.777 224.225 312.807" overflow="inherit" xml:space="preserve">
<sodipodi:namedview  bordercolor="#666666" pagecolor="#ffffff" borderopacity="1.0" id="base" inkscape:cx="40.510903" inkscape:pageopacity="0.0" inkscape:pageshadow="2" inkscape:zoom="0.49497474" inkscape:cy="601.70801" inkscape:document-units="px" inkscape:current-layer="layer1" showgrid="false" inkscape:snap-global="true" inkscape:snap-bbox="true" inkscape:snap-page="true" inkscape:window-width="735" inkscape:window-height="925" inkscape:window-x="1105" inkscape:window-y="41" inkscape:window-maximized="0">
	</sodipodi:namedview>
<g id="layer1" inkscape:groupmode="layer" inkscape:label="6h">
	<g id="g8954" transform="translate(-2206.5344,198.14981)">
		<g id="g8823">
			<g id="g8929" transform="translate(-4683.8753,2918.9368)">
				<path id="rect6357" fill="#FFFFFF" stroke="#000000" stroke-width="0.9967" d="M7161.472-2746.811h201.969
					c5.871,0,10.629,4.759,10.629,10.63v290.551c0,5.871-4.758,10.629-10.629,10.629h-201.969c-5.871,0-10.63-4.758-10.63-10.629
					v-290.551C7150.842-2742.052,7155.602-2746.811,7161.472-2746.811z"/>
				<g id="g8673" transform="matrix(0.30106207,0,0,0.30106207,6829.277,-2295.2794)">
					<path id="path7108" sodipodi:nodetypes="cssccacccccszsss" inkscape:connector-curvature="0" fill="#D40000" d="
						M1095.473-1380.216c-1.357-9.128-1.335-32.703-0.219-39.669c3.417-21.354,11.731-31.119,25.651-34.32
						c13.513-3.107,32.514,0.352,36.683,18.209l-11.316,0.209c-6.111-12.068-21.574-8.842-30.279-3.594
						c-6.951,4.193-10.093,21.655-8.748,22.73c-0.01,0,13.144-9.558,23.502-8.852c22.15,2.264,31.281,21.112,30.509,38.923
						c-0.699,21.425-7.623,38.539-31.093,39.684C1107.849-1347.74,1097.614-1359.687,1095.473-1380.216z M1150.512-1385.88
						c0.123-14.866-6.755-25.986-19.762-27.212c-13.006-1.229-26.119,11.233-25.21,26.381c0.911,15.2,6.904,28.006,22.674,27.935
						C1145.173-1358.85,1150.425-1375.305,1150.512-1385.88L1150.512-1385.88z"/>
					<path id="path7161" sodipodi:nodetypes="cssccacccccszsss" inkscape:connector-curvature="0" fill="#D40000" d="
						M1782.202-583.672c1.356,9.128,1.336,32.703,0.221,39.671c-3.419,21.35-11.729,31.12-25.651,34.319
						c-13.513,3.107-32.515-0.35-36.68-18.21l11.314-0.208c6.111,12.067,21.571,8.842,30.277,3.594
						c6.955-4.191,10.094-21.655,8.752-22.732c0.006,0-13.144,9.562-23.504,8.855c-22.148-2.264-31.282-21.11-30.51-38.925
						c0.701-21.422,7.623-38.542,31.094-39.684C1769.831-616.149,1780.061-604.199,1782.202-583.672L1782.202-583.672z
						 M1727.163-578.009c-0.123,14.869,6.753,25.989,19.761,27.215c13.007,1.226,26.125-11.236,25.217-26.384
						c-0.915-15.2-6.909-28.006-22.68-27.935C1732.502-605.036,1727.253-588.583,1727.163-578.009L1727.163-578.009z"/>
				</g>
			</g>
		</g>
		<path id="path8642" sodipodi:nodetypes="cccccccc" inkscape:connector-curvature="0" fill="#D40000" d="M2475.618,231.5
			c-1.583-3.473-1.756-9.405,2.971-10.208c3.562-0.458,5.012,1.198,5.3,3.742c0.142,0.743,0.562,0.788,0.695-0.059
			c0.205-2.609,2.787-4.133,4.806-3.75c5.527,0.945,5.204,7.028,3.398,11.155c-2.73,5.479-5.601,8.938-8.245,14.452
			C2481.505,241.092,2478.036,236.427,2475.618,231.5L2475.618,231.5z"/>
		<path id="path8530" sodipodi:nodetypes="ccccsccssc" inkscape:connector-curvature="0" fill="#D40000" d="M2510.905,200.489
			c7.145-0.475,10.869,5.627,11.596,10.437c0.434,0.764,0.67,0.548,0.837-0.043c0.349-6.174,5.875-11.22,10.992-10.53
			c8.328,0.108,13.39,9.376,11.967,17.219c-1.739,9.582-6.899,15.352-10.808,21.294c-4.422,6.152-10.373,15.039-12.291,19.316
			c0,0-6.048-9.204-13.917-20.029c-5.262-7.238-9.473-15.083-9.865-21.836C2498.969,208.601,2502.136,201.684,2510.905,200.489
			L2510.905,200.489z"/>
		<path id="path8532" sodipodi:nodetypes="ccccsccssc" inkscape:connector-curvature="0" fill="#D40000" d="M2622.439,200.489
			c7.145-0.475,10.867,5.627,11.596,10.437c0.432,0.764,0.67,0.548,0.836-0.043c0.35-6.174,5.875-11.22,10.992-10.53
			c8.328,0.108,13.391,9.376,11.967,17.219c-1.738,9.582-6.9,15.352-10.809,21.294c-4.42,6.152-10.371,15.039-12.289,19.316
			c0,0-6.049-9.204-13.918-20.029c-5.262-7.238-9.473-15.083-9.865-21.836C2610.501,208.601,2613.669,201.684,2622.439,200.489
			L2622.439,200.489z"/>
		<path id="path8534" sodipodi:nodetypes="ccccsccssc" inkscape:connector-curvature="0" fill="#D40000" d="M2622.439,299.383
			c7.145-0.475,10.867,5.627,11.596,10.437c0.432,0.764,0.67,0.549,0.836-0.043c0.35-6.174,5.875-11.22,10.992-10.529
			c8.328,0.107,13.391,9.375,11.967,17.219c-1.738,9.581-6.9,15.351-10.809,21.292c-4.42,6.152-10.371,15.039-12.289,19.316
			c0,0-6.049-9.203-13.918-20.029c-5.262-7.238-9.473-15.082-9.865-21.835C2610.501,307.495,2613.669,300.579,2622.439,299.383
			L2622.439,299.383z"/>
		<path id="path8536" sodipodi:nodetypes="ccccsccssc" inkscape:connector-curvature="0" fill="#D40000" d="M2510.905,299.383
			c7.145-0.475,10.869,5.627,11.596,10.437c0.434,0.764,0.67,0.549,0.837-0.043c0.349-6.174,5.875-11.22,10.992-10.529
			c8.328,0.107,13.39,9.375,11.967,17.219c-1.739,9.581-6.899,15.351-10.808,21.292c-4.422,6.152-10.373,15.039-12.291,19.316
			c0,0-6.048-9.203-13.917-20.029c-5.262-7.238-9.473-15.082-9.865-21.835C2498.969,307.495,2502.136,300.579,2510.905,299.383
			L2510.905,299.383z"/>
		<path id="path8592" sodipodi:nodetypes="ccccsccssc" inkscape:connector-curvature="0" fill="#D40000" d="M2510.905,455.475
			c7.145,0.475,10.869-5.627,11.596-10.438c0.434-0.764,0.67-0.549,0.837,0.043c0.349,6.174,5.875,11.221,10.992,10.529
			c8.328-0.107,13.39-9.375,11.967-17.219c-1.739-9.58-6.899-15.35-10.808-21.293c-4.422-6.152-10.373-15.039-12.291-19.316
			c0,0-6.048,9.205-13.917,20.029c-5.262,7.238-9.473,15.082-9.865,21.836C2498.969,447.362,2502.136,454.278,2510.905,455.475
			L2510.905,455.475z"/>
		<path id="path8594" sodipodi:nodetypes="ccccsccssc" inkscape:connector-curvature="0" fill="#D40000" d="M2622.439,455.475
			c7.145,0.475,10.867-5.627,11.596-10.438c0.432-0.764,0.67-0.549,0.836,0.043c0.35,6.174,5.875,11.221,10.992,10.529
			c8.328-0.107,13.391-9.375,11.967-17.219c-1.738-9.58-6.9-15.35-10.809-21.293c-4.42-6.152-10.371-15.039-12.289-19.316
			c0,0-6.049,9.205-13.918,20.029c-5.262,7.238-9.473,15.082-9.865,21.836C2610.501,447.362,2613.669,454.278,2622.439,455.475
			L2622.439,455.475z"/>
		<path id="path8658" sodipodi:nodetypes="cccccccc" inkscape:connector-curvature="0" fill="#D40000" d="M2664.433,422.358
			c-1.584,3.473-1.756,9.404,2.971,10.207c3.562,0.459,5.012-1.197,5.301-3.74c0.141-0.744,0.561-0.789,0.693,0.057
			c0.205,2.609,2.787,4.133,4.807,3.75c5.527-0.945,5.205-7.027,3.398-11.154c-2.73-5.48-5.6-8.938-8.244-14.453
			C2670.32,412.766,2666.851,417.43,2664.433,422.358L2664.433,422.358z"/>
	</g>
</g>
</svg>
