<?xml version="1.0" encoding="utf-8"?>
<!-- Generator: Adobe Illustrator 15.0.2, SVG Export Plug-In . SVG Version: 6.00 Build 0)  -->
<svg version="1.2" baseProfile="tiny"
	 id="svg4423" xmlns:inkscape="http://www.inkscape.org/namespaces/inkscape" sodipodi:docname="7H.svg" inkscape:version="0.48.1 r9760" xmlns:sodipodi="http://sodipodi.sourceforge.net/DTD/sodipodi-0.dtd" xmlns:rdf="http://www.w3.org/1999/02/22-rdf-syntax-ns#" xmlns:svg="http://www.w3.org/2000/svg" xmlns:cc="http://creativecommons.org/ns#" xmlns:dc="http://purl.org/dc/elements/1.1/"
	 xmlns="http://www.w3.org/2000/svg" xmlns:xlink="http://www.w3.org/1999/xlink" x="0px" y="0px" width="224.22px"
	 height="312.802px" viewBox="259.938 369.78 224.22 312.802" overflow="inherit" xml:space="preserve">
<sodipodi:namedview  bordercolor="#666666" pagecolor="#ffffff" borderopacity="1.0" id="base" inkscape:cx="133.5404" inkscape:pageopacity="0.0" inkscape:pageshadow="2" inkscape:zoom="0.69999999" inkscape:cy="490.34926" inkscape:document-units="px" inkscape:current-layer="layer1" showgrid="false" inkscape:snap-global="true" inkscape:snap-bbox="true" inkscape:snap-page="true" inkscape:window-width="735" inkscape:window-height="925" inkscape:window-x="29" inkscape:window-y="29" inkscape:window-maximized="0">
	</sodipodi:namedview>
<g id="layer1" inkscape:groupmode="layer" inkscape:label="7H">
	<g id="g9031" transform="translate(-1090.3923,-113.66123)">
		<g id="g8838">
			<g id="g8853" transform="translate(-4683.8753,2918.9368)">
				<path id="rect6359" fill="#FFFFFF" stroke="#000000" stroke-width="0.99" stroke-miterlimit="3.8" d="M6045.331-2435H6247.3
					c5.871,0,10.631,4.759,10.631,10.63v290.551c0,5.871-4.76,10.631-10.631,10.631h-201.969c-5.871,0-10.63-4.76-10.63-10.631
					v-290.551C6034.701-2430.241,6039.46-2435,6045.331-2435z"/>
				<g id="g8660" transform="matrix(0.30106207,0,0,0.30106207,5449.5822,-1980.8821)">
					<path id="path7110" sodipodi:nodetypes="cccccccccc" inkscape:connector-curvature="0" fill="#D40000" d="M1984.512-1353.898
						c7.081-36.836,14.644-64.472,34.478-94.491h-40.307v12.921h-10.714v-24.351h58.973l7.269,11.429
						c-21.063,22.576-40.35,95.555-36.935,94.491H1984.512z"/>
					<path id="path7126" sodipodi:nodetypes="cccccccccc" inkscape:connector-curvature="0" fill="#D40000" d="M2643.989-627.172
						c-7.084,36.836-14.642,64.472-34.481,94.49h40.307v-12.917h10.717v24.347h-58.971l-7.272-11.431
						c21.065-22.576,40.352-95.554,36.933-94.49H2643.989z"/>
				</g>
			</g>
		</g>
		<path id="path8632" sodipodi:nodetypes="cccccccc" inkscape:connector-curvature="0" fill="#D40000" d="M1359.653,545.897
			c-1.583-3.472-1.756-9.405,2.971-10.208c3.562-0.458,5.012,1.198,5.3,3.742c0.142,0.743,0.562,0.789,0.694-0.059
			c0.205-2.609,2.788-4.132,4.807-3.75c5.526,0.945,5.204,7.029,3.398,11.156c-2.731,5.479-5.601,8.938-8.245,14.451
			C1365.541,555.489,1362.072,550.825,1359.653,545.897L1359.653,545.897z"/>
		<path id="path8538" sodipodi:nodetypes="ccccsccssc" inkscape:connector-curvature="0" fill="#D40000" d="M1394.012,513.744
			c7.144-0.475,10.868,5.627,11.595,10.437c0.434,0.764,0.671,0.549,0.838-0.043c0.349-6.174,5.874-11.22,10.992-10.529
			c8.328,0.107,13.39,9.375,11.967,17.219c-1.739,9.581-6.9,15.351-10.809,21.293c-4.421,6.152-10.372,15.039-12.29,19.316
			c0,0-6.048-9.204-13.917-20.029c-5.262-7.238-9.473-15.082-9.865-21.836C1382.075,521.857,1385.243,514.94,1394.012,513.744
			L1394.012,513.744z"/>
		<path id="path8540" sodipodi:nodetypes="ccccsccssc" inkscape:connector-curvature="0" fill="#D40000" d="M1505.545,513.744
			c7.145-0.475,10.869,5.627,11.596,10.437c0.434,0.764,0.67,0.549,0.836-0.043c0.35-6.174,5.875-11.22,10.992-10.529
			c8.328,0.107,13.391,9.375,11.967,17.219c-1.738,9.581-6.898,15.351-10.807,21.293c-4.422,6.152-10.373,15.039-12.291,19.316
			c0,0-6.049-9.204-13.916-20.029c-5.264-7.238-9.475-15.082-9.865-21.836C1493.607,521.857,1496.775,514.94,1505.545,513.744
			L1505.545,513.744z"/>
		<path id="path8542" sodipodi:nodetypes="ccccsccssc" inkscape:connector-curvature="0" fill="#D40000" d="M1450.446,563.868
			c7.145-0.475,10.868,5.627,11.596,10.437c0.433,0.764,0.671,0.549,0.837-0.042c0.348-6.175,5.875-11.221,10.993-10.53
			c8.328,0.108,13.389,9.375,11.967,17.219c-1.738,9.581-6.9,15.351-10.809,21.293c-4.422,6.152-10.373,15.039-12.29,19.316
			c0,0-6.049-9.204-13.918-20.029c-5.262-7.238-9.473-15.082-9.865-21.835C1438.509,571.981,1441.676,565.065,1450.446,563.868
			L1450.446,563.868z"/>
		<path id="path8544" sodipodi:nodetypes="ccccsccssc" inkscape:connector-curvature="0" fill="#D40000" d="M1394.012,613.992
			c7.144-0.475,10.868,5.628,11.595,10.437c0.434,0.764,0.671,0.549,0.838-0.042c0.349-6.175,5.874-11.221,10.992-10.53
			c8.328,0.108,13.39,9.375,11.967,17.219c-1.739,9.582-6.9,15.351-10.809,21.292c-4.421,6.152-10.372,15.039-12.29,19.316
			c0,0-6.048-9.203-13.917-20.029c-5.262-7.238-9.473-15.082-9.865-21.834C1382.075,622.105,1385.243,615.189,1394.012,613.992
			L1394.012,613.992z"/>
		<path id="path8546" sodipodi:nodetypes="ccccsccssc" inkscape:connector-curvature="0" fill="#D40000" d="M1505.545,613.992
			c7.145-0.475,10.869,5.628,11.596,10.437c0.434,0.764,0.67,0.549,0.836-0.042c0.35-6.175,5.875-11.221,10.992-10.53
			c8.328,0.108,13.391,9.375,11.967,17.219c-1.738,9.582-6.898,15.351-10.807,21.292c-4.422,6.152-10.373,15.039-12.291,19.316
			c0,0-6.049-9.203-13.916-20.029c-5.264-7.238-9.475-15.082-9.865-21.834C1493.607,622.105,1496.775,615.189,1505.545,613.992
			L1505.545,613.992z"/>
		<path id="path8666" sodipodi:nodetypes="cccccccc" inkscape:connector-curvature="0" fill="#D40000" d="M1548.469,736.755
			c-1.584,3.473-1.758,9.406,2.971,10.209c3.562,0.457,5.012-1.199,5.301-3.742c0.141-0.744,0.561-0.789,0.693,0.059
			c0.205,2.609,2.787,4.131,4.807,3.75c5.527-0.945,5.205-7.029,3.398-11.156c-2.73-5.48-5.6-8.938-8.244-14.451
			C1554.355,727.163,1550.887,731.827,1548.469,736.755L1548.469,736.755z"/>
		<path id="path8620" sodipodi:nodetypes="ccccsccssc" inkscape:connector-curvature="0" fill="#D40000" d="M1505.545,770.085
			c7.145,0.475,10.869-5.627,11.596-10.438c0.434-0.764,0.67-0.547,0.836,0.043c0.35,6.174,5.875,11.221,10.992,10.531
			c8.328-0.109,13.391-9.377,11.967-17.219c-1.738-9.582-6.898-15.352-10.807-21.295c-4.422-6.152-10.373-15.039-12.291-19.316
			c0,0-6.049,9.205-13.916,20.029c-5.264,7.24-9.475,15.084-9.865,21.836C1493.607,761.971,1496.775,768.889,1505.545,770.085
			L1505.545,770.085z"/>
		<path id="path8622" sodipodi:nodetypes="ccccsccssc" inkscape:connector-curvature="0" fill="#D40000" d="M1394.012,770.085
			c7.144,0.475,10.868-5.627,11.595-10.438c0.434-0.764,0.671-0.547,0.838,0.043c0.349,6.174,5.874,11.221,10.992,10.531
			c8.328-0.109,13.39-9.377,11.967-17.219c-1.739-9.582-6.9-15.352-10.809-21.295c-4.421-6.152-10.372-15.039-12.29-19.316
			c0,0-6.048,9.205-13.917,20.029c-5.262,7.24-9.473,15.084-9.865,21.836C1382.075,761.971,1385.243,768.889,1394.012,770.085
			L1394.012,770.085z"/>
	</g>
</g>
</svg>
