<?xml version="1.0" encoding="utf-8"?>
<!-- Generator: Adobe Illustrator 15.0.2, SVG Export Plug-In . SVG Version: 6.00 Build 0)  -->
<svg version="1.2" baseProfile="tiny"
	 id="svg4423" xmlns:inkscape="http://www.inkscape.org/namespaces/inkscape" sodipodi:docname="8H.svg" inkscape:version="0.48.1 r9760" xmlns:sodipodi="http://sodipodi.sourceforge.net/DTD/sodipodi-0.dtd" xmlns:rdf="http://www.w3.org/1999/02/22-rdf-syntax-ns#" xmlns:svg="http://www.w3.org/2000/svg" xmlns:cc="http://creativecommons.org/ns#" xmlns:dc="http://purl.org/dc/elements/1.1/"
	 xmlns="http://www.w3.org/2000/svg" xmlns:xlink="http://www.w3.org/1999/xlink" x="0px" y="0px" width="224.226px"
	 height="312.809px" viewBox="259.935 369.777 224.226 312.809" overflow="inherit" xml:space="preserve">
<sodipodi:namedview  bordercolor="#666666" pagecolor="#ffffff" borderopacity="1.0" id="base" inkscape:cx="187.31121" inkscape:pageopacity="0.0" inkscape:pageshadow="2" inkscape:zoom="0.98994948" inkscape:cy="375.39925" inkscape:document-units="px" inkscape:current-layer="layer1" showgrid="false" inkscape:snap-global="true" inkscape:snap-bbox="true" inkscape:snap-page="true" inkscape:window-width="735" inkscape:window-height="925" inkscape:window-x="803" inkscape:window-y="66" inkscape:window-maximized="0">
	</sodipodi:namedview>
<g id="layer1" inkscape:groupmode="layer" inkscape:label="8H">
	<g id="g9013" transform="translate(-1313.6208,-113.66123)">
		<g id="g8854">
			<g id="g8836" transform="translate(-4683.8753,2918.9368)">
				<path id="rect6361" fill="#FFFFFF" stroke="#000000" stroke-width="0.9967" d="M6268.56-2435h201.969
					c5.871,0,10.631,4.759,10.631,10.63v290.551c0,5.871-4.76,10.631-10.631,10.631H6268.56c-5.871,0-10.63-4.76-10.63-10.631
					v-290.551C6257.93-2430.241,6262.689-2435,6268.56-2435z"/>
				<g id="g8646" transform="matrix(0.30106207,0,0,0.30106207,5370.0941,-1979.9322)">
					<path id="path7112" sodipodi:nodetypes="zcszsczzzssssssssss" inkscape:connector-curvature="0" fill="#D40000" d="
						M2971.744-1386.815c0.532-14.535,5.883-19.991,16.421-27.601c-8.406-5.962-11.95-14.736-11.235-22.213
						c1.732-18.092,15.977-27.144,31.506-26.749c15.528,0.394,28.913,12.501,29.956,25.648c0.908,11.437-2.559,16.947-10.82,22.97
						c9.809,8.109,16.078,13.452,15.839,27.77c-0.237,14.315-12.641,31.354-34.26,31.876c-21.62,0.526-37.939-17.169-37.407-31.701
						H2971.744z M3032.106-1386.769c0.928-13.16-10.923-22.038-24.292-22.177c-13.029-0.133-24.683,10.785-24.685,22.599
						c0,12.693,15.158,19.589,24.948,19.625C3019.977-1366.681,3031.307-1375.432,3032.106-1386.769L3032.106-1386.769z
						 M3027.828-1433.845c0.258-11.085-10.155-19.031-20.888-18.711c-9.551,0.284-19.667,7.443-19.673,16.71
						c-0.01,11.593,11.501,17.38,21.314,17.597C3017.485-1418.052,3027.632-1425.473,3027.828-1433.845z"/>
					<path id="path7128" sodipodi:nodetypes="zcszsczzzssssssssss" inkscape:connector-curvature="0" fill="#D40000" d="
						M3667.753-600.563c-0.532,14.532-5.884,19.988-16.426,27.598c8.408,5.962,11.95,14.74,11.236,22.213
						c-1.732,18.094-15.979,27.143-31.503,26.748c-15.531-0.389-28.915-12.501-29.959-25.645
						c-0.908-11.437,2.563-16.952,10.821-22.972c-9.809-8.109-16.076-13.448-15.842-27.766c0.24-14.318,12.644-31.354,34.26-31.879
						c21.623-0.525,37.938,17.172,37.407,31.704H3667.753z M3607.388-600.615c-0.928,13.163,10.925,22.044,24.295,22.181
						c13.027,0.136,24.678-10.782,24.685-22.602c0-12.689-15.161-19.586-24.951-19.618
						C3619.519-620.7,3608.186-611.948,3607.388-600.615L3607.388-600.615z M3611.669-553.535
						c-0.26,11.087,10.153,19.034,20.883,18.71c9.556-0.279,19.67-7.441,19.677-16.705c0.006-11.593-11.502-17.38-21.318-17.6
						C3622.01-569.332,3611.864-561.911,3611.669-553.535z"/>
				</g>
			</g>
		</g>
		<path id="path8634" sodipodi:nodetypes="cccccccc" inkscape:connector-curvature="0" fill="#D40000" d="M1583.636,546.847
			c-1.583-3.473-1.756-9.405,2.971-10.208c3.562-0.458,5.012,1.198,5.3,3.742c0.142,0.743,0.562,0.788,0.694-0.059
			c0.205-2.609,2.788-4.133,4.807-3.75c5.526,0.945,5.204,7.028,3.398,11.155c-2.731,5.479-5.601,8.938-8.245,14.452
			C1589.523,556.439,1586.055,551.775,1583.636,546.847L1583.636,546.847z"/>
		<path id="path8548" sodipodi:nodetypes="ccccsccssc" inkscape:connector-curvature="0" fill="#D40000" d="M1618.614,511.573
			c7.145-0.474,10.868,5.628,11.596,10.437c0.433,0.765,0.671,0.549,0.837-0.042c0.349-6.174,5.875-11.22,10.992-10.53
			c8.328,0.108,13.39,9.376,11.967,17.219c-1.738,9.582-6.9,15.352-10.809,21.293c-4.421,6.152-10.372,15.04-12.289,19.317
			c0,0-6.049-9.205-13.918-20.03c-5.262-7.238-9.473-15.082-9.865-21.835C1606.678,519.686,1609.845,512.77,1618.614,511.573
			L1618.614,511.573z"/>
		<path id="path8550" sodipodi:nodetypes="ccccsccssc" inkscape:connector-curvature="0" fill="#D40000" d="M1728.147,511.573
			c7.145-0.474,10.869,5.628,11.596,10.437c0.434,0.765,0.67,0.549,0.836-0.042c0.35-6.174,5.875-11.22,10.994-10.53
			c8.328,0.108,13.389,9.376,11.965,17.219c-1.738,9.582-6.898,15.352-10.807,21.293c-4.422,6.152-10.373,15.04-12.291,19.317
			c0,0-6.047-9.205-13.916-20.03c-5.262-7.238-9.475-15.082-9.865-21.835C1716.209,519.686,1719.377,512.77,1728.147,511.573
			L1728.147,511.573z"/>
		<path id="path8552" sodipodi:nodetypes="ccccsccssc" inkscape:connector-curvature="0" fill="#D40000" d="M1672.798,561.698
			c7.144-0.475,10.868,5.627,11.595,10.437c0.434,0.764,0.671,0.548,0.837-0.043c0.35-6.174,5.875-11.22,10.994-10.53
			c8.328,0.108,13.389,9.376,11.965,17.219c-1.738,9.582-6.898,15.352-10.807,21.293c-4.422,6.153-10.373,15.04-12.291,19.317
			c0,0-6.048-9.204-13.917-20.029c-5.262-7.239-9.474-15.083-9.865-21.836C1660.86,569.811,1664.027,562.894,1672.798,561.698
			L1672.798,561.698z"/>
		<path id="path8554" sodipodi:nodetypes="ccccsccssc" inkscape:connector-curvature="0" fill="#D40000" d="M1618.614,611.822
			c7.145-0.475,10.868,5.627,11.596,10.437c0.433,0.764,0.671,0.549,0.837-0.043c0.349-6.174,5.875-11.22,10.992-10.529
			c8.328,0.107,13.39,9.375,11.967,17.219c-1.738,9.581-6.9,15.351-10.809,21.292c-4.421,6.152-10.372,15.039-12.289,19.316
			c0,0-6.049-9.203-13.918-20.029c-5.262-7.238-9.473-15.082-9.865-21.835C1606.678,619.935,1609.845,613.018,1618.614,611.822
			L1618.614,611.822z"/>
		<path id="path8556" sodipodi:nodetypes="ccccsccssc" inkscape:connector-curvature="0" fill="#D40000" d="M1728.147,611.822
			c7.145-0.475,10.869,5.627,11.596,10.437c0.434,0.764,0.67,0.549,0.836-0.043c0.35-6.174,5.875-11.22,10.994-10.529
			c8.328,0.107,13.389,9.375,11.965,17.219c-1.738,9.581-6.898,15.351-10.807,21.292c-4.422,6.152-10.373,15.039-12.291,19.316
			c0,0-6.047-9.203-13.916-20.029c-5.262-7.238-9.475-15.082-9.865-21.835C1716.209,619.935,1719.377,613.018,1728.147,611.822
			L1728.147,611.822z"/>
		<path id="path8614" sodipodi:nodetypes="ccccsccssc" inkscape:connector-curvature="0" fill="#D40000" d="M1728.147,767.915
			c7.145,0.475,10.869-5.627,11.596-10.438c0.434-0.764,0.67-0.549,0.836,0.043c0.35,6.174,5.875,11.221,10.994,10.529
			c8.328-0.107,13.389-9.375,11.965-17.219c-1.738-9.58-6.898-15.35-10.807-21.293c-4.422-6.152-10.373-15.039-12.291-19.316
			c0,0-6.047,9.205-13.916,20.029c-5.262,7.238-9.475,15.082-9.865,21.836C1716.209,759.801,1719.377,766.717,1728.147,767.915
			L1728.147,767.915z"/>
		<path id="path8616" sodipodi:nodetypes="ccccsccssc" inkscape:connector-curvature="0" fill="#D40000" d="M1672.798,718.614
			c7.144,0.475,10.868-5.627,11.595-10.436c0.434-0.764,0.671-0.549,0.837,0.043c0.35,6.174,5.875,11.219,10.994,10.529
			c8.328-0.107,13.389-9.375,11.965-17.219c-1.738-9.582-6.898-15.352-10.807-21.293c-4.422-6.152-10.373-15.039-12.291-19.316
			c0,0-6.048,9.205-13.917,20.029c-5.262,7.238-9.474,15.082-9.865,21.836C1660.86,710.503,1664.027,717.419,1672.798,718.614
			L1672.798,718.614z"/>
		<path id="path8618" sodipodi:nodetypes="ccccsccssc" inkscape:connector-curvature="0" fill="#D40000" d="M1618.614,767.915
			c7.145,0.475,10.868-5.627,11.596-10.438c0.433-0.764,0.671-0.549,0.837,0.043c0.349,6.174,5.875,11.221,10.992,10.529
			c8.328-0.107,13.39-9.375,11.967-17.219c-1.738-9.58-6.9-15.35-10.809-21.293c-4.421-6.152-10.372-15.039-12.289-19.316
			c0,0-6.049,9.205-13.918,20.029c-5.262,7.238-9.473,15.082-9.865,21.836C1606.678,759.801,1609.845,766.717,1618.614,767.915
			L1618.614,767.915z"/>
		<path id="path8664" sodipodi:nodetypes="cccccccc" inkscape:connector-curvature="0" fill="#D40000" d="M1772.452,737.704
			c-1.584,3.473-1.758,9.406,2.971,10.209c3.562,0.459,5.012-1.199,5.301-3.742c0.141-0.742,0.561-0.789,0.693,0.059
			c0.205,2.609,2.787,4.133,4.807,3.75c5.527-0.945,5.205-7.029,3.398-11.156c-2.73-5.479-5.6-8.938-8.244-14.451
			C1778.338,728.112,1774.87,732.776,1772.452,737.704L1772.452,737.704z"/>
	</g>
</g>
</svg>
