<?xml version="1.0" encoding="utf-8"?>
<!-- Generator: Adobe Illustrator 15.0.2, SVG Export Plug-In . SVG Version: 6.00 Build 0)  -->
<svg version="1.2" baseProfile="tiny"
	 id="svg4423" xmlns:inkscape="http://www.inkscape.org/namespaces/inkscape" sodipodi:docname="AH.svg" inkscape:version="0.48.1 r9760" xmlns:sodipodi="http://sodipodi.sourceforge.net/DTD/sodipodi-0.dtd" xmlns:rdf="http://www.w3.org/1999/02/22-rdf-syntax-ns#" xmlns:svg="http://www.w3.org/2000/svg" xmlns:cc="http://creativecommons.org/ns#" xmlns:dc="http://purl.org/dc/elements/1.1/"
	 xmlns="http://www.w3.org/2000/svg" xmlns:xlink="http://www.w3.org/1999/xlink" x="0px" y="0px" width="224.226px"
	 height="312.807px" viewBox="259.935 369.777 224.226 312.807" overflow="inherit" xml:space="preserve">
<sodipodi:namedview  bordercolor="#666666" pagecolor="#ffffff" borderopacity="1.0" id="base" inkscape:cx="238.22195" inkscape:pageopacity="0.0" inkscape:pageshadow="2" inkscape:zoom="0.98994948" inkscape:cy="442.43337" inkscape:document-units="px" inkscape:current-layer="layer1" showgrid="false" inkscape:snap-global="true" inkscape:snap-bbox="true" inkscape:snap-page="true" inkscape:window-width="735" inkscape:window-height="925" inkscape:window-x="784" inkscape:window-y="63" inkscape:window-maximized="0">
	</sodipodi:namedview>
<g id="layer1" inkscape:groupmode="layer" inkscape:label="Layer 1">
	<g id="g8889" transform="translate(-1090.3923,198.14981)">
		<g id="g8763">
			<g id="g8869" transform="translate(-4683.8753,2918.9368)">
				<path id="rect3232" fill="#FFFFFF" stroke="#000000" stroke-width="0.9967" d="M6045.331-2746.811H6247.3
					c5.871,0,10.631,4.759,10.631,10.63v290.551c0,5.871-4.76,10.629-10.631,10.629h-201.969c-5.871,0-10.63-4.758-10.63-10.629
					v-290.551C6034.701-2742.052,6039.46-2746.811,6045.331-2746.811z"/>
				<g id="g8567" transform="matrix(0.30106207,0,0,0.30106207,5730.6419,-1948.1116)">
					<path id="path7183" sodipodi:nodetypes="ccccccccccccccccccccc" inkscape:connector-curvature="0" fill="#D40000" d="
						M1033.988-2499.93v-9.089h8.839l18.814-97.229h10.706l20.736,97.229h7.135v9.089h-24.307v-9.089h6.565l-2.616-14.901h-24.532
						l-1.893,14.901H1060v9.089H1033.988z M1077.76-2534.528l-10.657-52.049l-9.988,52.049H1077.76z"/>
					<path id="path7186" sodipodi:nodetypes="ccccccccccccccccccccc" inkscape:connector-curvature="0" fill="#D40000" d="
						M1727.393-1770.246v9.089h-8.836l-18.814,97.227h-10.711l-20.734-97.227h-7.136v-9.089h24.308v9.089h-6.565l2.614,14.902
						h24.536l1.894-14.902h-6.565v-9.089H1727.393z M1683.622-1735.649l10.659,52.049l9.984-52.049H1683.622z"/>
				</g>
			</g>
		</g>
		<path id="path8626" sodipodi:nodetypes="cccccccc" inkscape:connector-curvature="0" fill="#D40000" d="M1359.107,232.881
			c-1.583-3.473-1.757-9.406,2.971-10.208c3.562-0.459,5.012,1.198,5.3,3.741c0.142,0.743,0.562,0.789,0.695-0.058
			c0.204-2.609,2.787-4.133,4.806-3.75c5.527,0.945,5.204,7.028,3.398,11.155c-2.73,5.479-5.601,8.938-8.245,14.452
			C1364.994,242.472,1361.525,237.808,1359.107,232.881L1359.107,232.881z"/>
		<path id="path8512" sodipodi:nodetypes="ccccsccssc" inkscape:connector-curvature="0" fill="#D40000" d="M1450.39,299.285
			c7.145-0.475,10.869,5.627,11.596,10.437c0.434,0.764,0.671,0.549,0.837-0.043c0.35-6.174,5.875-11.22,10.993-10.529
			c8.328,0.107,13.389,9.375,11.967,17.219c-1.738,9.581-6.9,15.351-10.809,21.292c-4.422,6.152-10.373,15.039-12.29,19.316
			c0,0-6.049-9.203-13.918-20.029c-5.262-7.238-9.473-15.082-9.864-21.835C1438.453,307.397,1441.62,300.48,1450.39,299.285
			L1450.39,299.285z"/>
		<path id="path8648" sodipodi:nodetypes="cccccccc" inkscape:connector-curvature="0" fill="#D40000" d="M1547.487,423.567
			c-1.584,3.473-1.756,9.406,2.971,10.209c3.562,0.459,5.012-1.199,5.301-3.742c0.143-0.742,0.561-0.789,0.693,0.059
			c0.205,2.609,2.789,4.133,4.807,3.75c5.527-0.945,5.205-7.029,3.398-11.156c-2.73-5.479-5.6-8.938-8.244-14.451
			C1553.374,413.975,1549.905,418.639,1547.487,423.567L1547.487,423.567z"/>
	</g>
</g>
</svg>
